<svg width="38" height="38" viewBox="0 0 38 38" fill="none" xmlns="http://www.w3.org/2000/svg">
<path d="M20.0038 25.9615C21.8923 25.9615 23.4963 25.3005 24.8157 23.9786C26.1352 22.6566 26.7949 21.0514 26.7949 19.1629C26.7949 17.2744 26.1339 15.6704 24.812 14.351C23.49 13.0316 21.8848 12.3718 19.9963 12.3718C18.1078 12.3718 16.5038 13.0328 15.1844 14.3548C13.8649 15.6767 13.2052 17.282 13.2052 19.1705C13.2052 21.0589 13.8662 22.6629 15.1881 23.9823C16.5101 25.3018 18.1153 25.9615 20.0038 25.9615ZM20 23.6667C18.75 23.6667 17.6875 23.2292 16.8125 22.3542C15.9375 21.4792 15.5 20.4167 15.5 19.1667C15.5 17.9167 15.9375 16.8542 16.8125 15.9792C17.6875 15.1042 18.75 14.6667 20 14.6667C21.25 14.6667 22.3125 15.1042 23.1875 15.9792C24.0625 16.8542 24.5 17.9167 24.5 19.1667C24.5 20.4167 24.0625 21.4792 23.1875 22.3542C22.3125 23.2292 21.25 23.6667 20 23.6667ZM20.0023 30.8333C16.1696 30.8333 12.6774 29.7761 9.52571 27.6618C6.37401 25.5475 4.05351 22.7158 2.56421 19.1667C4.05351 15.6175 6.37326 12.7858 9.52346 10.6715C12.6736 8.5572 16.1651 7.50004 19.9978 7.50004C23.8304 7.50004 27.3227 8.5572 30.4744 10.6715C33.6261 12.7858 35.9466 15.6175 37.4359 19.1667C35.9466 22.7158 33.6268 25.5475 30.4766 27.6618C27.3265 29.7761 23.835 30.8333 20.0023 30.8333ZM20 28.3333C23.1389 28.3333 26.0209 27.5069 28.6459 25.8542C31.2709 24.2014 33.2778 21.9722 34.6667 19.1667C33.2778 16.3611 31.2709 14.1319 28.6459 12.4792C26.0209 10.8264 23.1389 10 20 10C16.8612 10 13.9792 10.8264 11.3542 12.4792C8.72921 14.1319 6.72226 16.3611 5.33338 19.1667C6.72226 21.9722 8.72921 24.2014 11.3542 25.8542C13.9792 27.5069 16.8612 28.3333 20 28.3333Z" fill="black"/>
</svg>
