<svg width="38" height="38" viewBox="0 0 38 38" fill="none" xmlns="http://www.w3.org/2000/svg">
<path d="M26.2885 21.6218L24.4167 19.75C24.6667 18.3696 24.273 17.1287 23.2356 16.0273C22.1982 14.9258 20.9252 14.5 19.4167 14.75L17.545 12.8783C17.921 12.7094 18.3067 12.5828 18.702 12.4985C19.0973 12.414 19.53 12.3718 20 12.3718C21.891 12.3718 23.4963 13.0316 24.8157 14.351C26.1352 15.6704 26.7949 17.2757 26.7949 19.1667C26.7949 19.6368 26.7527 20.0748 26.6683 20.4808C26.5839 20.8867 26.4573 21.2671 26.2885 21.6218ZM31.5898 26.8077L29.75 25.0833C30.8056 24.2778 31.7431 23.3958 32.5625 22.4375C33.382 21.4792 34.0834 20.3889 34.6667 19.1667C33.2778 16.3611 31.2848 14.1319 28.6875 12.4792C26.0903 10.8264 23.1945 10 20 10C19.1945 10 18.4028 10.0556 17.625 10.1667C16.8473 10.2778 16.0834 10.4444 15.3334 10.6667L13.3911 8.72442C14.4445 8.30561 15.5204 7.99685 16.6187 7.79813C17.7169 7.5994 18.8441 7.50004 20 7.50004C23.906 7.50004 27.4284 8.57696 30.5673 10.7308C33.7062 12.8847 35.9957 15.6966 37.4359 19.1667C36.8184 20.656 36.0208 22.0459 35.0433 23.3365C34.0657 24.6271 32.9145 25.7841 31.5898 26.8077ZM32.9359 36.4486L26.1924 29.7563C25.3377 30.0726 24.3906 30.3311 23.351 30.532C22.3115 30.7329 21.1945 30.8333 20 30.8333C16.0834 30.8333 12.561 29.7564 9.43279 27.6025C6.3046 25.4487 4.01507 22.6367 2.56421 19.1667C3.1796 17.6944 3.97447 16.321 4.94883 15.0465C5.9232 13.7719 6.99585 12.6667 8.16679 11.7308L3.55138 7.06412L5.30779 5.30775L34.6923 34.6923L32.9359 36.4486ZM9.92317 13.4871C9.04283 14.188 8.18653 15.0304 7.35425 16.0144C6.52197 16.9984 5.84835 18.0491 5.33338 19.1667C6.72226 21.9722 8.71532 24.2014 11.3125 25.8542C13.9098 27.5069 16.8056 28.3333 20 28.3333C20.7586 28.3333 21.514 28.2692 22.2661 28.141C23.0183 28.0128 23.6561 27.8803 24.1796 27.7436L22.0706 25.5833C21.7864 25.6987 21.4573 25.7905 21.0834 25.8589C20.7095 25.9273 20.3483 25.9615 20 25.9615C18.109 25.9615 16.5038 25.3018 15.1844 23.9823C13.8649 22.6629 13.2052 21.0577 13.2052 19.1667C13.2052 18.8291 13.2394 18.476 13.3078 18.1074C13.3762 17.7388 13.4681 17.4017 13.5834 17.0961L9.92317 13.4871Z" fill="black"/>
</svg>
